<svg width="201" height="44" viewBox="0 0 201 44" fill="none" xmlns="http://www.w3.org/2000/svg">
<path d="M83.6 13.5224V31.5883H79.9765V19.8377L75.1365 31.5883H72.393L67.5271 19.8377V31.5883H63.9036V13.5224H68.0189L73.7647 26.9553L79.5106 13.5224H83.6ZM100.9 17.2494L92.0225 38.3694H88.166L91.2719 31.2259L85.526 17.2494H89.5896L93.2907 27.2659L97.0437 17.2494H100.9ZM126.828 17.0424C128.588 17.0424 130.003 17.5859 131.073 18.673C132.16 19.7428 132.703 21.2439 132.703 23.1765V31.5883H129.08V23.6683C129.08 22.5467 128.795 21.6926 128.225 21.1059C127.656 20.502 126.88 20.2 125.896 20.2C124.913 20.2 124.127 20.502 123.541 21.1059C122.971 21.6926 122.687 22.5467 122.687 23.6683V31.5883H119.063V23.6683C119.063 22.5467 118.778 21.6926 118.209 21.1059C117.64 20.502 116.863 20.2 115.88 20.2C114.879 20.2 114.085 20.502 113.498 21.1059C112.929 21.6926 112.644 22.5467 112.644 23.6683V31.5883H109.021V17.2494H112.644V18.9836C113.11 18.3796 113.705 17.9051 114.43 17.56C115.172 17.2149 115.983 17.0424 116.863 17.0424C117.985 17.0424 118.985 17.2839 119.865 17.7671C120.745 18.233 121.427 18.9059 121.91 19.7859C122.376 18.9577 123.049 18.2934 123.929 17.793C124.826 17.2926 125.793 17.0424 126.828 17.0424ZM142.509 31.8212C141.128 31.8212 139.886 31.5192 138.782 30.9153C137.677 30.2941 136.806 29.4228 136.167 28.3012C135.546 27.1796 135.236 25.8855 135.236 24.4188C135.236 22.9522 135.555 21.6581 136.193 20.5365C136.849 19.4149 137.738 18.5522 138.859 17.9483C139.981 17.3271 141.232 17.0165 142.612 17.0165C143.993 17.0165 145.244 17.3271 146.365 17.9483C147.487 18.5522 148.367 19.4149 149.005 20.5365C149.661 21.6581 149.989 22.9522 149.989 24.4188C149.989 25.8855 149.652 27.1796 148.979 28.3012C148.324 29.4228 147.426 30.2941 146.287 30.9153C145.166 31.5192 143.906 31.8212 142.509 31.8212ZM142.509 28.6636C143.164 28.6636 143.777 28.5083 144.346 28.1977C144.933 27.8698 145.399 27.3867 145.744 26.7483C146.089 26.1098 146.262 25.3334 146.262 24.4188C146.262 23.0557 145.899 22.0118 145.175 21.2871C144.467 20.5451 143.596 20.1741 142.56 20.1741C141.525 20.1741 140.654 20.5451 139.946 21.2871C139.256 22.0118 138.911 23.0557 138.911 24.4188C138.911 25.782 139.247 26.8345 139.92 27.5765C140.611 28.3012 141.473 28.6636 142.509 28.6636ZM160.593 17.0424C162.301 17.0424 163.681 17.5859 164.734 18.673C165.786 19.7428 166.313 21.2439 166.313 23.1765V31.5883H162.689V23.6683C162.689 22.5294 162.404 21.6581 161.835 21.0541C161.265 20.433 160.489 20.1224 159.505 20.1224C158.505 20.1224 157.711 20.433 157.124 21.0541C156.555 21.6581 156.27 22.5294 156.27 23.6683V31.5883H152.647V17.2494H156.27V19.0353C156.753 18.4141 157.366 17.931 158.108 17.5859C158.867 17.2236 159.695 17.0424 160.593 17.0424ZM183.088 24.1083C183.088 24.6259 183.053 25.0918 182.984 25.5059H172.502C172.588 26.5412 172.95 27.3522 173.589 27.9388C174.227 28.5255 175.012 28.8188 175.944 28.8188C177.29 28.8188 178.248 28.2408 178.817 27.0847H182.725C182.311 28.4651 181.518 29.6039 180.344 30.5012C179.171 31.3812 177.73 31.8212 176.022 31.8212C174.641 31.8212 173.399 31.5192 172.295 30.9153C171.208 30.2941 170.354 29.4228 169.732 28.3012C169.129 27.1796 168.827 25.8855 168.827 24.4188C168.827 22.9349 169.129 21.6322 169.732 20.5106C170.336 19.389 171.182 18.5263 172.269 17.9224C173.356 17.3185 174.607 17.0165 176.022 17.0165C177.385 17.0165 178.601 17.3098 179.671 17.8965C180.758 18.4832 181.595 19.32 182.182 20.4071C182.786 21.4769 183.088 22.7106 183.088 24.1083ZM179.335 23.073C179.318 22.1412 178.981 21.3992 178.325 20.8471C177.67 20.2777 176.867 19.993 175.918 19.993C175.021 19.993 174.262 20.269 173.641 20.8212C173.037 21.3561 172.666 22.1067 172.528 23.073H179.335ZM199.45 17.2494L190.573 38.3694H186.716L189.822 31.2259L184.076 17.2494H188.14L191.841 27.2659L195.594 17.2494H199.45Z" fill="white"/>
<circle cx="22" cy="22" r="22" fill="#33CC95"/>
<path d="M20.0588 21.353C19.3593 21.353 18.6691 21.2457 18.0286 21.0393C17.388 20.833 16.8145 20.5331 16.3382 20.1626C15.862 19.7923 15.4954 19.3612 15.2497 18.8998C15.0045 18.4393 14.8823 17.9543 14.8823 17.4706C14.8823 16.9869 15.0045 16.5019 15.2497 16.0414C15.4954 15.58 15.862 15.149 16.3382 14.7786C16.8145 14.4081 17.388 14.1083 18.0286 13.9019C18.6691 13.6955 19.3593 13.5883 20.0588 13.5883" stroke="white" stroke-width="1.29412"/>
<path d="M25.2353 21.3529C25.925 21.3529 26.6065 21.4737 27.2403 21.7071C27.8741 21.9405 28.4454 22.2809 28.9232 22.7056C29.401 23.1303 29.7753 23.6302 30.029 24.1747C30.2826 24.7188 30.4117 25.2988 30.4117 25.8823C30.4117 26.4658 30.2826 27.0458 30.029 27.59C29.7753 28.1344 29.401 28.6344 28.9232 29.059C28.4454 29.4838 27.8741 29.8242 27.2403 30.0576C26.6065 30.2909 25.925 30.4117 25.2353 30.4117" stroke="white" stroke-width="1.29412"/>
<rect x="19.4117" y="12.9412" width="10.3529" height="1.29412" fill="white"/>
<rect x="14.2352" y="29.7647" width="11.6471" height="1.29412" fill="white"/>
<rect x="23.2942" y="7.76471" width="28.4706" height="1.29412" transform="rotate(90 23.2942 7.76471)" fill="white"/>
<rect x="19.4117" y="20.7059" width="6.47059" height="1.29412" fill="white"/>
</svg>
